<svg id="visual" viewBox="0 0 960 540" width="960" height="540" xmlns="http://www.w3.org/2000/svg" xmlns:xlink="http://www.w3.org/1999/xlink" version="1.1"><path d="M0 506L20 504C40 502 80 498 120 495.8C160 493.7 200 493.3 240 493.8C280 494.3 320 495.7 360 496.5C400 497.3 440 497.7 480 499.3C520 501 560 504 600 504.3C640 504.7 680 502.3 720 501.3C760 500.3 800 500.7 840 499.2C880 497.7 920 494.3 940 492.7L960 491L960 541L940 541C920 541 880 541 840 541C800 541 760 541 720 541C680 541 640 541 600 541C560 541 520 541 480 541C440 541 400 541 360 541C320 541 280 541 240 541C200 541 160 541 120 541C80 541 40 541 20 541L0 541Z" fill="#116399"></path><path d="M0 508L20 507.5C40 507 80 506 120 506.2C160 506.3 200 507.7 240 509C280 510.3 320 511.7 360 512.7C400 513.7 440 514.3 480 513.5C520 512.7 560 510.3 600 509.2C640 508 680 508 720 508.7C760 509.3 800 510.7 840 512.7C880 514.7 920 517.3 940 518.7L960 520L960 541L940 541C920 541 880 541 840 541C800 541 760 541 720 541C680 541 640 541 600 541C560 541 520 541 480 541C440 541 400 541 360 541C320 541 280 541 240 541C200 541 160 541 120 541C80 541 40 541 20 541L0 541Z" fill="#96adcb"></path><path d="M0 527L20 527C40 527 80 527 120 527.2C160 527.3 200 527.7 240 528.2C280 528.7 320 529.3 360 528C400 526.7 440 523.3 480 522.5C520 521.7 560 523.3 600 523C640 522.7 680 520.3 720 520.3C760 520.3 800 522.7 840 523.5C880 524.3 920 523.7 940 523.3L960 523L960 541L940 541C920 541 880 541 840 541C800 541 760 541 720 541C680 541 640 541 600 541C560 541 520 541 480 541C440 541 400 541 360 541C320 541 280 541 240 541C200 541 160 541 120 541C80 541 40 541 20 541L0 541Z" fill="#ffffff"></path></svg>